<svg xmlns="http://www.w3.org/2000/svg" version="1.2" baseProfile="tiny" width="100%" height="100%" viewBox="0 0 400 600" preserveAspectRatio="xMinYMin meet">
<g transform="scale(1.2 1) translate(-33.33333333333333 0)">
<path fill="#e9c7c3" stroke="#000" stroke-width="6" d="M10 600s-10-70 50-70c10 0 0-10 60-20 0 0 50-210 80-210s80 210 80 210c60 10 50 20 60 20 60 0 50 70 50 70"/><path d="M71 545s46.9-3 82.1 10M329 545s-46.9-3-82.1 10m77.1-18s5.5-7.5 22-7m-271 7s-5.5-7.5-22-7"/>
</g>
<g transform="scale(1.2 1) translate(-33.74999999999999 0)">
<g stroke="#000"><path fill="#ffffff" stroke-width="3" d="M120 505s35 40 80 40 80-40 80-40v95H120z" class="s0"/><path fill="#303030" stroke-width="6" d="M120 504.6c10 45.4 80 55.4 90 65.4 10 10 10 40 10 40H-5s5-40 5-50 10-30 40-40 50 0 80-15.4z" class="s0"/><path fill="#303030" stroke-width="6" d="M360 520c30 10 40 30 40 40s10 50 10 50H180s0-40 10-50 80-10 90-55c30 15 50 5 80 15z" class="s0"/><path fill="#303030" stroke-width="1.5" d="M196 597c-2.8 0-5-2.2-5-5s2.2-5 5-5 5 2.2 5 5-2.2 5-5 5zm-2-5h1m2 0h1" class="s1"/></g><g fill="none" stroke="#000" stroke-width="6"><path d="M120 504.6c6.9 37.6 62.2 49.3 67.9 57-7.8 11.2-8 48.4-8 48.4H-5s5-40 5-50 10-30 40-40 50 0 80-15.4z" class="s5"/><path d="M360 520c30 10 40 30 40 40s10 50 10 50H180s0-40 10-50 80-10 90-55c30 15 50 5 80 15z" class="s5"/></g>
</g>
<g transform="translate(33.53553390593274 291.01362954285077) scale(0.87 0.87) translate(3.207334014056028 5.0784231717579305) translate(18.461067811865473 -2.979591836734694)">
<path fill="#e9c7c3" stroke="#000" stroke-width="6" d="M40 14S10-1 5 4s0 30 5 40-5 25 30 20z"/>
</g>
<g transform="translate(323.53553390593277 291.01362954285077) scale(-0.87 0.87) translate(-46.136266202190555 5.0784231717579305) translate(18.461067811865473 -2.979591836734694)">
<path fill="#e9c7c3" stroke="#000" stroke-width="6" d="M40 14S10-1 5 4s0 30 5 40-5 25 30 20z"/>
</g>
<g transform="scale(0.8620000000000001 1) translate(32.01856148491877 0)">
<path fill="#e9c7c3" stroke="#000" stroke-width="6" d="M200 100c100 0 150 60 150 200 0 70-30 150-40 160s-60 40-110 40-100-30-110-40-40-90-40-160c0-140 50-200 150-200Z" class="head"/><path fill="rgba(0,0,0,0)" d="M200 410c30 0 50 10 50 10 30 0 90-15 90-120h10c0 70-30 150-40 160s-60 40-110 40-100-30-110-40-40-90-40-160h10c0 105 60 120 90 120 0 0 20-10 50-10" class="faceShave"/><path fill="rgba(0,0,0,0)" d="M60 300H50c0-140 50-200 150-200s150 60 150 200h-10v-10c0-5-10-20-15-25s-5-55-15-65c-40-40-60 0-110 0s-70-40-110 0c-10 10-10 60-15 65s-15 20-15 25z" class="headShave"/>
</g>
<g>
<path fill="none" stroke="#000" stroke-width="2" d="M240 340s25 10 40 0m-120 0s-25 10-40 0" class="eyeline4"/>
</g>
<g transform="translate(144.4807306749833 416) scale(1.5 1.5) translate(-1.839756441672236 -6.333333333333333)">
<path fill="none" stroke="#000" stroke-width="2" d="M9 2s-12.5 8.95-4 34" class="shp0"/>
</g>
<g transform="translate(244.4807306749833 416) scale(-1.5 1.5) translate(-9.19878220836118 -6.333333333333333)">
<path fill="none" stroke="#000" stroke-width="2" d="M9 2s-12.5 8.95-4 34" class="shp0"/>
</g>
<g>
<path fill="none" stroke="#000" stroke-width="2" d="M200 270v-15l5-5-5 5-5-5m-25-15s15 0 30 5c15-5 30-5 30-5m-75-15s35 0 45 5c10-5 45-5 45-5"/>
</g>
<g transform="scale(0.8620000000000001 1) translate(32.01856148491877 0)">
<path stroke="#000" stroke-width="3" d="M165 470v25m10-30v35m10-40v40m10-40v40m10 0v-40m10 0v40m10-35v35m10-30v25" class="shp0"/>
</g>
<g transform="translate(102.8498332560182 285.155) rotate(10 37.15016674398179 24.845)">
<style>.black{fill:#000}</style><g id="eye"><path id="Shape 1" d="M5.55 28.46S17.08 11.77 40 11.77s28.58 16.69 28.58 16.69-5.73 11.46-28.65 11.46c-22.92 0-34.38-11.46-34.38-11.46Z" style="fill:#f5f3ee"/><path id="Layer 2" d="M5.55 28.46C2.68 25.6 17.08 9.77 40 9.77S71.44 25.6 68.58 28.46C65.71 31.33 62.92 16.27 40 16.27c-22.92 0-31.59 15.06-34.45 12.19Z" class="black"/><path id="Shape 2" d="M39.93 33.04c-6.34 0-11.46-5.12-11.46-11.46 0-6.33 5.12-11.46 11.46-11.46 6.34 0 11.46 5.13 11.46 11.46 0 6.34-5.12 11.46-11.46 11.46" class="black"/></g>
</g>
<g transform="translate(222.8498332560182 285.155) rotate(-10 37.15016674398179 24.845) scale(-1 1) translate(-74.30033348796358 0)">
<style>.black{fill:#000}</style><g id="eye"><path id="Shape 1" d="M5.55 28.46S17.08 11.77 40 11.77s28.58 16.69 28.58 16.69-5.73 11.46-28.65 11.46c-22.92 0-34.38-11.46-34.38-11.46Z" style="fill:#f5f3ee"/><path id="Layer 2" d="M5.55 28.46C2.68 25.6 17.08 9.77 40 9.77S71.44 25.6 68.58 28.46C65.71 31.33 62.92 16.27 40 16.27c-22.92 0-31.59 15.06-34.45 12.19Z" class="black"/><path id="Shape 2" d="M39.93 33.04c-6.34 0-11.46-5.12-11.46-11.46 0-6.33 5.12-11.46 11.46-11.46 6.34 0 11.46 5.13 11.46 11.46 0 6.34-5.12 11.46-11.46 11.46" class="black"/></g>
</g>
<g transform="translate(97.20374849998123 257.1494303002541) rotate(-4 42.79625150001876 12.850569699745927)">
<path fill="#272421" stroke="#000" d="M12.93 8.33C11.42 9.56 8.75 12.57 6.99 15c-1.76 2.43-3.38 5.16-3.61 6.06-.22.91-.16 1.77.13 1.92.3.14 4.44-.51 9.21-1.46 4.77-.95 11.58-1.96 15.13-2.23 3.55-.28 11.63-.52 17.94-.53 6.32-.02 14.56.22 18.32.53 3.75.31 8.39.47 10.29.36 1.91-.11 4.56-.5 5.89-.87 2.09-.59 2.33-.97 1.84-2.91-.42-1.66-1.74-2.85-5.18-4.66-2.54-1.34-7.86-3.18-11.83-4.09-3.97-.92-10.99-2.21-15.6-2.87-4.62-.66-11.91-1.33-16.22-1.49-6.13-.21-8.91.12-12.73 1.52-2.69.99-6.13 2.81-7.64 4.05Z"/>
</g>
<g transform="translate(217.20374849998123 257.1494303002541) rotate(4 42.79625150001876 12.850569699745927) scale(-1 1) translate(-85.59250300003752 0)">
<path fill="#272421" stroke="#000" d="M12.93 8.33C11.42 9.56 8.75 12.57 6.99 15c-1.76 2.43-3.38 5.16-3.61 6.06-.22.91-.16 1.77.13 1.92.3.14 4.44-.51 9.21-1.46 4.77-.95 11.58-1.96 15.13-2.23 3.55-.28 11.63-.52 17.94-.53 6.32-.02 14.56.22 18.32.53 3.75.31 8.39.47 10.29.36 1.91-.11 4.56-.5 5.89-.87 2.09-.59 2.33-.97 1.84-2.91-.42-1.66-1.74-2.85-5.18-4.66-2.54-1.34-7.86-3.18-11.83-4.09-3.97-.92-10.99-2.21-15.6-2.87-4.62-.66-11.91-1.33-16.22-1.49-6.13-.21-8.91.12-12.73 1.52-2.69.99-6.13 2.81-7.64 4.05Z"/>
</g>
<g transform="translate(0 51.52119068455602)">
<path d="M168 384s9-13.77 32-14.03c17.4-.2 32 13.2 32 13.2s-4.29 23.24-32 23.81c-27.29.56-32-22.98-32-22.98" style="opacity:.05;mix-blend-mode:multiply;fill:#501414"/><path d="M181.71 402.12c14.52 5.66 24.72 5.71 37.72-.71m.86-26.53c-14.52-5.66-27.29-6.34-40.29.09" style="fill:none;stroke:#000;stroke-width:2"/><path d="M165 390s20-5 35-5 35 4 35 4" style="fill:none;stroke:#000;stroke-width:4"/>
</g>
<g transform="translate(0 7.5) scale(0.68 0.68) translate(94.11764705882351 170.58823529411762)">
<path fill="#e9c7c3" stroke="#000" stroke-width="5" d="M190 325s-5 20-5 45c-20-5-15 15-15 20 20 0 15 10 30 10s10-10 30-10c0-5 5-25-15-20 0-25-5-45-5-45" class="nose"/>
</g>
<g transform="scale(0.8620000000000001 1) translate(32.110107114182924 0)">
<path fill="#272421" stroke="#000" stroke-width="4" d="M150.74 72.13c-.03.43 3.16 2.66 7.19 5.01l7.25 4.23c-2.73 1.64-5.17 2.7-7.19 3.42-2.02.72-5.44 1.68-7.62 2.13-2.17.46-8.51 2.16-14.1 3.78-5.58 1.62-13.19 3.82-16.92 4.89-3.72 1.06-8.92 2.51-11.56 3.21-2.63.7-7.71 1.98-11.28 2.84-3.57.85-8.51 2.19-11 2.97-2.48.77-5.22 1.7-6.09 2.05-.93.38-1.52 1-1.41 1.5.1.47 1.67 1.32 3.56 1.92 1.86.6 4.47 1.49 5.8 1.98s2.4 1.21 2.39 1.6c-.01.38-1.65 2.29-3.66 4.23-2 1.94-5.6 5.05-8 6.91-2.4 1.86-5.64 4.41-7.21 5.67-1.57 1.27-4.28 3.68-6 5.36-1.73 1.69-4.32 4.59-5.75 6.45-1.43 1.86-4.77 7.64-7.43 12.83-2.66 5.2-4.83 9.83-4.83 10.29 0 .47-.26.91-.58.99-.31.08-.76 1.08-.98 2.23-.38 1.92-.29 2.14 1.14 2.68 1.25.48 1.55.94 1.55 2.42 0 1.01-.37 5.64-.82 10.3-.45 4.65-1.23 11-1.72 14.1l-1.73 10.71c-.45 2.8-1.07 8.38-1.37 12.41-.3 4.03-1 10.42-1.55 14.2-.91 6.34-.92 6.95-.08 7.9.56.63 1.16 3 1.55 6.1.35 2.79.64 7.62.64 10.72.01 3.1.26 8.56.57 12.12.3 3.57.92 8.14 1.37 10.16.45 2.01.96 5.38 1.14 7.47.3 3.71.36 3.83 2.28 4.65 1.09.47 1.97 1.1 1.97 1.41 0 .31 1.08 1.33 2.4 2.27 1.57 1.13 3.08 1.71 4.37 1.71 1.32 0 2.38-.43 3.19-1.28.67-.71 2.67-4.21 4.45-7.77 1.78-3.57 3.67-7.12 4.2-7.9.53-.78 2.11-3.57 3.51-6.2 1.4-2.64 3.22-6.96 4.04-9.59.82-2.64 1.73-6.19 2.02-7.9.29-1.7.94-8.18 1.45-14.38.5-6.2 1.42-13.82 2.05-16.92.62-3.1 1.8-7.66 2.63-10.13 1.49-4.43 1.54-4.49 4.05-5.28 1.39-.44 6.21-.96 10.71-1.16l8.18-.35c1.44-7.84 2.03-9.5 2.82-10.13.82-.65 1.83-.81 3.67-.59 1.39.16 4.95.9 7.89 1.64 2.95.73 7.9 2.53 11 4 3.1 1.46 6.78 2.79 8.18 2.95 2.48.29 2.55.26 3.12-1.61.47-1.53.91-1.94 2.25-2.08.93-.1 3.2.38 5.06 1.05 1.86.68 6.69 2.91 10.72 4.96 4.03 2.04 9.87 5.39 12.97 7.44 3.1 2.05 6.53 4.49 7.62 5.42 1.08.93 3.62 2.87 5.64 4.31 2.01 1.44 4.11 2.63 4.65 2.64.65.01.99-.41.99-1.25.01-.7-1.26-4.38-2.82-8.18-1.55-3.8-2.66-7.03-2.45-7.19.21-.15.97-.28 1.69-.28.73 0 3.22.51 5.55 1.13 2.33.62 5.56 1.65 7.19 2.29 1.63.64 3.6 1.08 4.37.99 1.35-.17 1.42-.37 1.59-4.41.09-2.33.48-4.56.84-4.96.37-.4 1.82-.72 3.21-.71 1.4.01 5.2.5 8.46 1.08 3.26.59 7.83 1.83 10.15 2.76 2.33.93 7.15 3.02 10.72 4.64 3.57 1.63 7.88 3.47 9.59 4.1 1.7.62 3.35 1.35 3.66 1.63.31.28 1.46.5 2.54.51 1.93 0 1.97-.05 1.61-1.85-.2-1.01-1.62-4.12-3.15-6.92a794.03 794.03 0 0 0-5.14-9.16c-1.29-2.25-2.34-4.22-2.34-4.37 0-.16 1.2-.44 2.68-.64 1.47-.19 2.99-.64 3.37-.98.39-.35.83-2.61.99-5.01l.29-4.37c3.28-.57 7.15-.57 10.72-.37 3.56.2 7.21.56 8.1.79 1.23.32 2.58 1.81 5.5 6.07 2.14 3.1 4.33 6.59 4.87 7.76s1.3 2.12 1.69 2.12c.42-.01.7-.76.7-1.85-.01-1.01.33-2.97.74-4.37.42-1.39 1.88-4.74 3.26-7.43 2.12-4.18 2.64-4.82 3.48-4.38.54.29 3.14 2.69 5.78 5.33 2.64 2.63 5.9 6.5 7.25 8.6 1.35 2.09 3.63 6.4 5.07 9.58 1.44 3.18 3.12 7.63 3.72 9.87.61 2.25 1.48 6 1.93 8.32.46 2.33 1.25 9.31 1.75 15.51.51 6.21 1.16 12.68 1.45 14.39.29 1.7 1.2 5.26 2.02 7.89.82 2.64 2.64 6.95 4.04 9.59 1.4 2.64 2.98 5.43 3.51 6.2.53.78 2.42 4.33 4.2 7.9 1.78 3.57 3.78 7.06 4.45 7.77.81.86 1.87 1.28 3.19 1.28 1.3.01 2.8-.58 4.37-1.7 1.32-.94 2.4-1.96 2.4-2.27 0-.31.89-.95 1.97-1.41 1.93-.83 1.99-.95 2.29-4.66.17-2.09.68-5.45 1.13-7.47.45-2.02 1.07-6.58 1.38-10.15.3-3.57.55-9.03.56-12.13 0-3.1.29-7.92.64-10.71.39-3.11.99-5.48 1.55-6.11.84-.95.84-1.56-.08-7.89-.55-3.78-1.24-10.17-1.54-14.2-.31-4.04-.92-9.62-1.38-12.41-.45-2.79-1.23-7.62-1.72-10.72-.5-3.1-1.27-9.45-1.72-14.1-.45-4.65-.82-9.28-.82-10.29 0-1.48.29-1.95 1.55-2.43 1.42-.54 1.51-.75 1.14-2.67-.23-1.15-.67-2.16-.99-2.23-.32-.08-.58-.53-.58-.99 0-.47-2.25-5.23-5-10.58s-6.75-12.23-8.88-15.3c-2.14-3.06-5.84-8.39-8.23-11.84-2.39-3.45-5.47-8.18-6.83-10.5-1.37-2.33-2.81-5.12-3.21-6.21-.63-1.72-.56-2.45.49-5.78.66-2.09 1.22-4.5 1.23-5.36.02-.85-.3-1.83-.7-2.18-.4-.34-2.76-1.4-5.25-2.35-2.48-.95-6.41-2.6-8.74-3.67-2.32-1.06-5.05-2.6-6.06-3.42l-1.83-1.49c1.84-5.78 2.25-8.62 2.25-11.42 0-3.8-.13-4.37-.98-4.35-.55.01-2.01.84-3.25 1.86-1.24 1.02-4.28 3.27-6.77 5.01-2.48 1.75-6.92 4.32-9.87 5.73-2.94 1.41-6.88 3.1-8.74 3.76-1.86.67-4.65 1.55-6.2 1.98-2.58.7-2.97.67-4.51-.3-.93-.59-2.71-2.12-3.95-3.41-1.24-1.28-2.96-2.7-3.81-3.14-.85-.44-2.25-.79-3.1-.79-1.04.01-2.3.74-3.81 2.21l-2.25 2.19c-9.18-3.78-14.96-5.79-18.76-6.9-4.79-1.4-8.03-2.02-10.57-2.02-2.55 0-3.67.22-3.68.71 0 .38 1.03 1.72 2.3 2.96 1.27 1.24 2.51 2.63 2.76 3.1.35.66-.36.56-3.29-.47-2.05-.72-8.68-2.55-14.73-4.06-6.05-1.51-15.06-3.39-20.02-4.17-4.97-.79-10.55-1.72-12.41-2.08-1.86-.36-5.16-.87-7.33-1.14-2.17-.27-5.25-.65-6.84-.84-2.22-.27-2.9-.18-2.95.42Z"/>
</g>
</svg>